<svg width="817" height="245" viewBox="0 0 817 245" fill="none" xmlns="http://www.w3.org/2000/svg">
<path d="M0 244.568V38.0684L16 43.0684L38 0.5L73 51.0684L96 21.5L122 51.0684L179.5 0.5L205.5 38.0684V244.568H0Z" fill="url(#paint0_linear_154_27)"/>
<path d="M74.8613 144.809L76.8301 144.617C76.9486 145.278 77.1878 145.763 77.5479 146.073C77.9124 146.383 78.4023 146.538 79.0176 146.538C79.6693 146.538 80.1592 146.401 80.4873 146.128C80.82 145.85 80.9863 145.526 80.9863 145.157C80.9863 144.92 80.9157 144.72 80.7744 144.556C80.6377 144.387 80.3962 144.241 80.0498 144.118C79.8128 144.036 79.2728 143.89 78.4297 143.681C77.3451 143.412 76.584 143.081 76.1465 142.689C75.5312 142.138 75.2236 141.466 75.2236 140.673C75.2236 140.162 75.3672 139.686 75.6543 139.244C75.946 138.798 76.363 138.458 76.9053 138.226C77.4521 137.993 78.1107 137.877 78.8809 137.877C80.1387 137.877 81.0843 138.153 81.7178 138.704C82.3558 139.256 82.6908 139.992 82.7227 140.912L80.6992 141.001C80.6126 140.486 80.4258 140.117 80.1387 139.894C79.8561 139.666 79.43 139.552 78.8604 139.552C78.2725 139.552 77.8122 139.673 77.4795 139.914C77.2653 140.069 77.1582 140.276 77.1582 140.536C77.1582 140.773 77.2585 140.976 77.459 141.145C77.7142 141.359 78.334 141.582 79.3184 141.814C80.3027 142.047 81.0296 142.288 81.499 142.539C81.973 142.785 82.3421 143.125 82.6064 143.558C82.8753 143.986 83.0098 144.517 83.0098 145.15C83.0098 145.725 82.8503 146.262 82.5312 146.764C82.2122 147.265 81.7611 147.639 81.1777 147.885C80.5944 148.126 79.8675 148.247 78.9971 148.247C77.7301 148.247 76.7572 147.955 76.0781 147.372C75.3991 146.784 74.9935 145.93 74.8613 144.809ZM84.2539 144.337C84.2539 143.699 84.4111 143.081 84.7256 142.484C85.04 141.887 85.4844 141.432 86.0586 141.117C86.6374 140.803 87.2822 140.646 87.9932 140.646C89.0915 140.646 89.9915 141.003 90.6934 141.719C91.3952 142.43 91.7461 143.33 91.7461 144.419C91.7461 145.517 91.3906 146.429 90.6797 147.153C89.9733 147.873 89.0824 148.233 88.0068 148.233C87.3415 148.233 86.7057 148.083 86.0996 147.782C85.498 147.481 85.04 147.042 84.7256 146.463C84.4111 145.88 84.2539 145.171 84.2539 144.337ZM86.2227 144.439C86.2227 145.16 86.3936 145.711 86.7354 146.094C87.0771 146.477 87.4987 146.668 88 146.668C88.5013 146.668 88.9206 146.477 89.2578 146.094C89.5996 145.711 89.7705 145.155 89.7705 144.426C89.7705 143.715 89.5996 143.168 89.2578 142.785C88.9206 142.402 88.5013 142.211 88 142.211C87.4987 142.211 87.0771 142.402 86.7354 142.785C86.3936 143.168 86.2227 143.719 86.2227 144.439ZM98.0352 148.069V146.982C97.7708 147.37 97.4222 147.675 96.9893 147.898C96.5609 148.122 96.1074 148.233 95.6289 148.233C95.1413 148.233 94.7038 148.126 94.3164 147.912C93.929 147.698 93.6488 147.397 93.4756 147.01C93.3024 146.622 93.2158 146.087 93.2158 145.403V140.81H95.1367V144.146C95.1367 145.166 95.1709 145.793 95.2393 146.025C95.3122 146.253 95.4421 146.436 95.6289 146.572C95.8158 146.704 96.0527 146.771 96.3398 146.771C96.668 146.771 96.9619 146.682 97.2217 146.504C97.4814 146.322 97.6592 146.098 97.7549 145.834C97.8506 145.565 97.8984 144.911 97.8984 143.872V140.81H99.8193V148.069H98.0352ZM103.654 148.069H101.733V140.81H103.518V141.842C103.823 141.354 104.096 141.033 104.338 140.878C104.584 140.723 104.862 140.646 105.172 140.646C105.609 140.646 106.031 140.766 106.437 141.008L105.842 142.683C105.518 142.473 105.217 142.368 104.939 142.368C104.671 142.368 104.443 142.443 104.256 142.594C104.069 142.74 103.921 143.006 103.812 143.394C103.707 143.781 103.654 144.592 103.654 145.827V148.069ZM113.601 142.956L111.707 143.298C111.643 142.92 111.497 142.635 111.27 142.443C111.046 142.252 110.755 142.156 110.395 142.156C109.916 142.156 109.533 142.323 109.246 142.655C108.964 142.983 108.822 143.535 108.822 144.31C108.822 145.171 108.966 145.779 109.253 146.135C109.545 146.49 109.934 146.668 110.422 146.668C110.786 146.668 111.085 146.565 111.317 146.36C111.55 146.151 111.714 145.793 111.81 145.287L113.696 145.608C113.5 146.474 113.124 147.128 112.568 147.57C112.012 148.012 111.267 148.233 110.333 148.233C109.271 148.233 108.424 147.898 107.79 147.229C107.161 146.559 106.847 145.631 106.847 144.446C106.847 143.248 107.163 142.316 107.797 141.65C108.43 140.98 109.287 140.646 110.367 140.646C111.251 140.646 111.953 140.837 112.473 141.22C112.997 141.598 113.373 142.177 113.601 142.956ZM119.268 145.759L121.182 146.08C120.936 146.782 120.546 147.317 120.013 147.687C119.484 148.051 118.821 148.233 118.023 148.233C116.761 148.233 115.827 147.821 115.221 146.996C114.742 146.335 114.503 145.501 114.503 144.494C114.503 143.291 114.817 142.35 115.446 141.671C116.075 140.987 116.87 140.646 117.832 140.646C118.912 140.646 119.764 141.003 120.389 141.719C121.013 142.43 121.312 143.521 121.284 144.993H116.472C116.485 145.563 116.64 146.007 116.937 146.326C117.233 146.641 117.602 146.798 118.044 146.798C118.345 146.798 118.598 146.716 118.803 146.552C119.008 146.388 119.163 146.123 119.268 145.759ZM119.377 143.817C119.363 143.261 119.22 142.84 118.946 142.553C118.673 142.261 118.34 142.115 117.948 142.115C117.529 142.115 117.183 142.268 116.909 142.573C116.636 142.879 116.501 143.293 116.506 143.817H119.377ZM122.18 145.998L124.107 145.704C124.189 146.078 124.356 146.363 124.606 146.559C124.857 146.75 125.208 146.846 125.659 146.846C126.156 146.846 126.53 146.755 126.78 146.572C126.949 146.445 127.033 146.274 127.033 146.06C127.033 145.914 126.988 145.793 126.896 145.697C126.801 145.606 126.587 145.522 126.254 145.444C124.704 145.103 123.722 144.79 123.308 144.508C122.733 144.116 122.446 143.571 122.446 142.874C122.446 142.245 122.695 141.716 123.191 141.288C123.688 140.86 124.458 140.646 125.502 140.646C126.495 140.646 127.234 140.807 127.717 141.131C128.2 141.454 128.533 141.933 128.715 142.566L126.903 142.901C126.826 142.619 126.678 142.402 126.459 142.252C126.245 142.102 125.937 142.026 125.536 142.026C125.03 142.026 124.668 142.097 124.449 142.238C124.303 142.339 124.23 142.468 124.23 142.628C124.23 142.765 124.294 142.881 124.422 142.977C124.595 143.104 125.192 143.284 126.213 143.517C127.238 143.749 127.954 144.034 128.359 144.371C128.76 144.713 128.961 145.189 128.961 145.8C128.961 146.465 128.683 147.037 128.127 147.516C127.571 147.994 126.748 148.233 125.659 148.233C124.67 148.233 123.886 148.033 123.308 147.632C122.733 147.231 122.357 146.686 122.18 145.998Z" fill="white"/>
<rect x="304.5" y="37.0693" width="207" height="207" fill="url(#paint1_linear_154_27)"/>
<rect x="304.5" y="123.069" width="207" height="83" fill="url(#paint2_linear_154_27)"/>
<path d="M350.367 85.0693V75.0479H352.336L356.438 81.7402V75.0479H358.317V85.0693H356.287L352.247 78.5342V85.0693H350.367ZM361.886 80.0244L360.143 79.71C360.339 79.0081 360.676 78.4886 361.154 78.1514C361.633 77.8141 362.344 77.6455 363.287 77.6455C364.144 77.6455 364.782 77.748 365.201 77.9531C365.62 78.1536 365.914 78.4111 366.083 78.7256C366.256 79.0355 366.343 79.6074 366.343 80.4414L366.322 82.6836C366.322 83.3216 366.352 83.7933 366.411 84.0986C366.475 84.3994 366.591 84.723 366.76 85.0693H364.859C364.809 84.9417 364.748 84.7526 364.675 84.502C364.643 84.388 364.62 84.3128 364.606 84.2764C364.278 84.5954 363.927 84.8346 363.554 84.9941C363.18 85.1536 362.781 85.2334 362.357 85.2334C361.61 85.2334 361.02 85.0306 360.587 84.625C360.159 84.2194 359.944 83.7067 359.944 83.0869C359.944 82.6768 360.042 82.3122 360.238 81.9932C360.434 81.6696 360.708 81.4235 361.059 81.2549C361.414 81.0817 361.924 80.9313 362.59 80.8037C363.488 80.6351 364.11 80.4779 364.456 80.332V80.1406C364.456 79.7715 364.365 79.5094 364.183 79.3545C364 79.195 363.656 79.1152 363.15 79.1152C362.809 79.1152 362.542 79.1836 362.351 79.3203C362.159 79.4525 362.004 79.6872 361.886 80.0244ZM364.456 81.583C364.21 81.665 363.82 81.763 363.287 81.877C362.754 81.9909 362.405 82.1025 362.241 82.2119C361.991 82.3896 361.865 82.6152 361.865 82.8887C361.865 83.1576 361.965 83.39 362.166 83.5859C362.367 83.7819 362.622 83.8799 362.932 83.8799C363.278 83.8799 363.608 83.766 363.923 83.5381C364.155 83.3649 364.308 83.153 364.381 82.9023C364.431 82.7383 364.456 82.4261 364.456 81.9658V81.583ZM368.188 77.8096H369.979V78.876C370.212 78.5114 370.526 78.2152 370.923 77.9873C371.319 77.7594 371.759 77.6455 372.242 77.6455C373.085 77.6455 373.801 77.9759 374.389 78.6367C374.977 79.2975 375.271 80.2181 375.271 81.3984C375.271 82.6107 374.974 83.554 374.382 84.2285C373.789 84.8984 373.072 85.2334 372.229 85.2334C371.827 85.2334 371.463 85.1536 371.135 84.9941C370.811 84.8346 370.469 84.5612 370.109 84.1738V87.8311H368.188V77.8096ZM370.089 81.3164C370.089 82.1322 370.251 82.736 370.574 83.1279C370.898 83.5153 371.292 83.709 371.757 83.709C372.203 83.709 372.575 83.5312 372.871 83.1758C373.167 82.8158 373.315 82.2279 373.315 81.4121C373.315 80.651 373.163 80.0859 372.857 79.7168C372.552 79.3477 372.174 79.1631 371.723 79.1631C371.253 79.1631 370.864 79.3454 370.554 79.71C370.244 80.07 370.089 80.6055 370.089 81.3164ZM376.747 77.8096H378.538V78.876C378.771 78.5114 379.085 78.2152 379.481 77.9873C379.878 77.7594 380.318 77.6455 380.801 77.6455C381.644 77.6455 382.359 77.9759 382.947 78.6367C383.535 79.2975 383.829 80.2181 383.829 81.3984C383.829 82.6107 383.533 83.554 382.94 84.2285C382.348 84.8984 381.63 85.2334 380.787 85.2334C380.386 85.2334 380.021 85.1536 379.693 84.9941C379.37 84.8346 379.028 84.5612 378.668 84.1738V87.8311H376.747V77.8096ZM378.647 81.3164C378.647 82.1322 378.809 82.736 379.133 83.1279C379.456 83.5153 379.851 83.709 380.315 83.709C380.762 83.709 381.133 83.5312 381.43 83.1758C381.726 82.8158 381.874 82.2279 381.874 81.4121C381.874 80.651 381.721 80.0859 381.416 79.7168C381.111 79.3477 380.732 79.1631 380.281 79.1631C379.812 79.1631 379.422 79.3454 379.112 79.71C378.802 80.07 378.647 80.6055 378.647 81.3164ZM389.564 82.7588L391.479 83.0801C391.232 83.7819 390.843 84.3174 390.31 84.6865C389.781 85.0511 389.118 85.2334 388.32 85.2334C387.058 85.2334 386.124 84.821 385.518 83.9961C385.039 83.3353 384.8 82.5013 384.8 81.4941C384.8 80.291 385.114 79.3499 385.743 78.6709C386.372 77.9873 387.167 77.6455 388.129 77.6455C389.209 77.6455 390.061 78.0033 390.686 78.7188C391.31 79.4297 391.608 80.5212 391.581 81.9932H386.769C386.782 82.5628 386.937 83.0072 387.233 83.3262C387.53 83.6406 387.899 83.7979 388.341 83.7979C388.642 83.7979 388.895 83.7158 389.1 83.5518C389.305 83.3877 389.46 83.1234 389.564 82.7588ZM389.674 80.8174C389.66 80.2614 389.517 79.8398 389.243 79.5527C388.97 79.2611 388.637 79.1152 388.245 79.1152C387.826 79.1152 387.479 79.2679 387.206 79.5732C386.933 79.8786 386.798 80.2933 386.803 80.8174H389.674ZM396.995 77.8096H398.786V78.876C399.019 78.5114 399.333 78.2152 399.729 77.9873C400.126 77.7594 400.566 77.6455 401.049 77.6455C401.892 77.6455 402.607 77.9759 403.195 78.6367C403.783 79.2975 404.077 80.2181 404.077 81.3984C404.077 82.6107 403.781 83.554 403.188 84.2285C402.596 84.8984 401.878 85.2334 401.035 85.2334C400.634 85.2334 400.27 85.1536 399.941 84.9941C399.618 84.8346 399.276 84.5612 398.916 84.1738V87.8311H396.995V77.8096ZM398.896 81.3164C398.896 82.1322 399.057 82.736 399.381 83.1279C399.704 83.5153 400.099 83.709 400.563 83.709C401.01 83.709 401.382 83.5312 401.678 83.1758C401.974 82.8158 402.122 82.2279 402.122 81.4121C402.122 80.651 401.969 80.0859 401.664 79.7168C401.359 79.3477 400.98 79.1631 400.529 79.1631C400.06 79.1631 399.67 79.3454 399.36 79.71C399.05 80.07 398.896 80.6055 398.896 81.3164ZM407.522 75.0479V78.7324C408.142 78.0078 408.883 77.6455 409.744 77.6455C410.186 77.6455 410.585 77.7275 410.94 77.8916C411.296 78.0557 411.562 78.2653 411.74 78.5205C411.923 78.7757 412.046 79.0583 412.109 79.3682C412.178 79.6781 412.212 80.1589 412.212 80.8105V85.0693H410.291V81.2344C410.291 80.4733 410.255 79.9902 410.182 79.7852C410.109 79.5801 409.979 79.4183 409.792 79.2998C409.61 79.1768 409.38 79.1152 409.102 79.1152C408.783 79.1152 408.498 79.1927 408.247 79.3477C407.996 79.5026 407.812 79.7373 407.693 80.0518C407.579 80.3617 407.522 80.8219 407.522 81.4326V85.0693H405.602V75.0479H407.522ZM416.006 85.0693H414.085V77.8096H415.869V78.8418C416.174 78.3542 416.448 78.0329 416.689 77.8779C416.936 77.723 417.214 77.6455 417.523 77.6455C417.961 77.6455 418.382 77.7663 418.788 78.0078L418.193 79.6826C417.87 79.473 417.569 79.3682 417.291 79.3682C417.022 79.3682 416.794 79.4434 416.607 79.5938C416.421 79.7396 416.272 80.0062 416.163 80.3936C416.058 80.7809 416.006 81.5921 416.006 82.8271V85.0693ZM423.826 82.7588L425.74 83.0801C425.494 83.7819 425.104 84.3174 424.571 84.6865C424.043 85.0511 423.38 85.2334 422.582 85.2334C421.32 85.2334 420.385 84.821 419.779 83.9961C419.301 83.3353 419.062 82.5013 419.062 81.4941C419.062 80.291 419.376 79.3499 420.005 78.6709C420.634 77.9873 421.429 77.6455 422.391 77.6455C423.471 77.6455 424.323 78.0033 424.947 78.7188C425.572 79.4297 425.87 80.5212 425.843 81.9932H421.03C421.044 82.5628 421.199 83.0072 421.495 83.3262C421.791 83.6406 422.16 83.7979 422.603 83.7979C422.903 83.7979 423.156 83.7158 423.361 83.5518C423.566 83.3877 423.721 83.1234 423.826 82.7588ZM423.936 80.8174C423.922 80.2614 423.778 79.8398 423.505 79.5527C423.231 79.2611 422.899 79.1152 422.507 79.1152C422.088 79.1152 421.741 79.2679 421.468 79.5732C421.194 79.8786 421.06 80.2933 421.064 80.8174H423.936ZM421.481 76.9209L422.425 74.877H424.578L422.698 76.9209H421.481ZM428.851 80.0244L427.107 79.71C427.303 79.0081 427.641 78.4886 428.119 78.1514C428.598 77.8141 429.309 77.6455 430.252 77.6455C431.109 77.6455 431.747 77.748 432.166 77.9531C432.585 78.1536 432.879 78.4111 433.048 78.7256C433.221 79.0355 433.308 79.6074 433.308 80.4414L433.287 82.6836C433.287 83.3216 433.317 83.7933 433.376 84.0986C433.44 84.3994 433.556 84.723 433.725 85.0693H431.824C431.774 84.9417 431.713 84.7526 431.64 84.502C431.608 84.388 431.585 84.3128 431.571 84.2764C431.243 84.5954 430.892 84.8346 430.519 84.9941C430.145 85.1536 429.746 85.2334 429.322 85.2334C428.575 85.2334 427.985 85.0306 427.552 84.625C427.123 84.2194 426.909 83.7067 426.909 83.0869C426.909 82.6768 427.007 82.3122 427.203 81.9932C427.399 81.6696 427.673 81.4235 428.023 81.2549C428.379 81.0817 428.889 80.9313 429.555 80.8037C430.452 80.6351 431.075 80.4779 431.421 80.332V80.1406C431.421 79.7715 431.33 79.5094 431.147 79.3545C430.965 79.195 430.621 79.1152 430.115 79.1152C429.773 79.1152 429.507 79.1836 429.315 79.3203C429.124 79.4525 428.969 79.6872 428.851 80.0244ZM431.421 81.583C431.175 81.665 430.785 81.763 430.252 81.877C429.719 81.9909 429.37 82.1025 429.206 82.2119C428.955 82.3896 428.83 82.6152 428.83 82.8887C428.83 83.1576 428.93 83.39 429.131 83.5859C429.331 83.7819 429.587 83.8799 429.896 83.8799C430.243 83.8799 430.573 83.766 430.888 83.5381C431.12 83.3649 431.273 83.153 431.346 82.9023C431.396 82.7383 431.421 82.4261 431.421 81.9658V81.583ZM438.537 77.8096V79.3408H437.225V82.2666C437.225 82.859 437.236 83.2054 437.259 83.3057C437.286 83.4014 437.343 83.4811 437.43 83.5449C437.521 83.6087 437.63 83.6406 437.758 83.6406C437.936 83.6406 438.193 83.5791 438.53 83.4561L438.694 84.9463C438.248 85.1377 437.742 85.2334 437.177 85.2334C436.83 85.2334 436.518 85.1764 436.24 85.0625C435.962 84.944 435.757 84.7936 435.625 84.6113C435.497 84.4245 435.409 84.1738 435.358 83.8594C435.317 83.6361 435.297 83.1849 435.297 82.5059V79.3408H434.415V77.8096H435.297V76.3672L437.225 75.2461V77.8096H438.537ZM439.87 76.8252V75.0479H441.791V76.8252H439.87ZM439.87 85.0693V77.8096H441.791V85.0693H439.87ZM448.511 87.8311V84.1807C448.26 84.5042 447.948 84.7617 447.574 84.9531C447.201 85.14 446.797 85.2334 446.364 85.2334C445.539 85.2334 444.86 84.9235 444.327 84.3037C443.698 83.5791 443.384 82.597 443.384 81.3574C443.384 80.1908 443.678 79.2816 444.266 78.6299C444.858 77.9736 445.592 77.6455 446.467 77.6455C446.95 77.6455 447.367 77.748 447.718 77.9531C448.073 78.1582 448.388 78.4681 448.661 78.8828V77.8096H450.432V87.8311H448.511ZM448.572 81.3506C448.572 80.6077 448.42 80.0563 448.114 79.6963C447.813 79.3317 447.435 79.1494 446.979 79.1494C446.515 79.1494 446.125 79.334 445.811 79.7031C445.501 80.0723 445.346 80.6579 445.346 81.46C445.346 82.2575 445.496 82.834 445.797 83.1895C446.098 83.5404 446.469 83.7158 446.911 83.7158C447.353 83.7158 447.741 83.5176 448.073 83.1211C448.406 82.7246 448.572 82.1344 448.572 81.3506ZM457.104 85.0693V83.9824C456.839 84.3698 456.491 84.6751 456.058 84.8984C455.629 85.1217 455.176 85.2334 454.697 85.2334C454.21 85.2334 453.772 85.1263 453.385 84.9121C452.997 84.6979 452.717 84.3971 452.544 84.0098C452.371 83.6224 452.284 83.0869 452.284 82.4033V77.8096H454.205V81.1455C454.205 82.1663 454.239 82.793 454.308 83.0254C454.381 83.2533 454.51 83.4355 454.697 83.5723C454.884 83.7044 455.121 83.7705 455.408 83.7705C455.736 83.7705 456.03 83.6816 456.29 83.5039C456.55 83.3216 456.728 83.0983 456.823 82.834C456.919 82.5651 456.967 81.9111 456.967 80.8721V77.8096H458.888V85.0693H457.104ZM465.088 82.7588L467.002 83.0801C466.756 83.7819 466.366 84.3174 465.833 84.6865C465.304 85.0511 464.641 85.2334 463.844 85.2334C462.581 85.2334 461.647 84.821 461.041 83.9961C460.562 83.3353 460.323 82.5013 460.323 81.4941C460.323 80.291 460.638 79.3499 461.267 78.6709C461.896 77.9873 462.691 77.6455 463.652 77.6455C464.732 77.6455 465.585 78.0033 466.209 78.7188C466.833 79.4297 467.132 80.5212 467.104 81.9932H462.292C462.306 82.5628 462.461 83.0072 462.757 83.3262C463.053 83.6406 463.422 83.7979 463.864 83.7979C464.165 83.7979 464.418 83.7158 464.623 83.5518C464.828 83.3877 464.983 83.1234 465.088 82.7588ZM465.197 80.8174C465.184 80.2614 465.04 79.8398 464.767 79.5527C464.493 79.2611 464.16 79.1152 463.769 79.1152C463.349 79.1152 463.003 79.2679 462.729 79.5732C462.456 79.8786 462.322 80.2933 462.326 80.8174H465.197Z" fill="white"/>
<path d="M610.25 244.638V47.2194C610.25 47.2194 619.773 51.9995 626.289 51.9995C632.805 51.9995 634.965 40.4866 643.33 37.6592C660.356 31.9048 654.357 51.9987 683.428 59.6477C712.498 67.2966 715.224 37.8568 738.561 37.6592C757.874 37.4956 773.647 47.2194 785.676 51.9995C797.705 56.7796 816.25 47.2194 816.25 47.2194V244.638H610.25Z" fill="url(#paint3_linear_154_27)"/>
<path d="M702.501 148.069V138.13H704.524V146.381H709.556V148.069H702.501ZM712.427 143.024L710.684 142.71C710.88 142.008 711.217 141.489 711.695 141.151C712.174 140.814 712.885 140.646 713.828 140.646C714.685 140.646 715.323 140.748 715.742 140.953C716.161 141.154 716.455 141.411 716.624 141.726C716.797 142.035 716.884 142.607 716.884 143.441L716.863 145.684C716.863 146.322 716.893 146.793 716.952 147.099C717.016 147.399 717.132 147.723 717.301 148.069H715.4C715.35 147.942 715.289 147.753 715.216 147.502C715.184 147.388 715.161 147.313 715.147 147.276C714.819 147.595 714.468 147.835 714.095 147.994C713.721 148.154 713.322 148.233 712.898 148.233C712.151 148.233 711.561 148.031 711.128 147.625C710.7 147.219 710.485 146.707 710.485 146.087C710.485 145.677 710.583 145.312 710.779 144.993C710.975 144.67 711.249 144.424 711.6 144.255C711.955 144.082 712.465 143.931 713.131 143.804C714.029 143.635 714.651 143.478 714.997 143.332V143.141C714.997 142.771 714.906 142.509 714.724 142.354C714.541 142.195 714.197 142.115 713.691 142.115C713.35 142.115 713.083 142.184 712.892 142.32C712.7 142.452 712.545 142.687 712.427 143.024ZM714.997 144.583C714.751 144.665 714.361 144.763 713.828 144.877C713.295 144.991 712.946 145.103 712.782 145.212C712.532 145.39 712.406 145.615 712.406 145.889C712.406 146.158 712.507 146.39 712.707 146.586C712.908 146.782 713.163 146.88 713.473 146.88C713.819 146.88 714.149 146.766 714.464 146.538C714.696 146.365 714.849 146.153 714.922 145.902C714.972 145.738 714.997 145.426 714.997 144.966V144.583ZM725.114 142.956L723.221 143.298C723.157 142.92 723.011 142.635 722.783 142.443C722.56 142.252 722.268 142.156 721.908 142.156C721.43 142.156 721.047 142.323 720.76 142.655C720.477 142.983 720.336 143.535 720.336 144.31C720.336 145.171 720.479 145.779 720.767 146.135C721.058 146.49 721.448 146.668 721.936 146.668C722.3 146.668 722.599 146.565 722.831 146.36C723.063 146.151 723.228 145.793 723.323 145.287L725.21 145.608C725.014 146.474 724.638 147.128 724.082 147.57C723.526 148.012 722.781 148.233 721.847 148.233C720.785 148.233 719.937 147.898 719.304 147.229C718.675 146.559 718.36 145.631 718.36 144.446C718.36 143.248 718.677 142.316 719.311 141.65C719.944 140.98 720.801 140.646 721.881 140.646C722.765 140.646 723.467 140.837 723.986 141.22C724.51 141.598 724.886 142.177 725.114 142.956Z" fill="white"/>
<defs>
<linearGradient id="paint0_linear_154_27" x1="102.75" y1="27" x2="102.75" y2="244.568" gradientUnits="userSpaceOnUse">
<stop stop-color="#4B72DD"/>
<stop offset="1" stop-color="#0E0A24"/>
</linearGradient>
<linearGradient id="paint1_linear_154_27" x1="408" y1="37.0693" x2="408" y2="244.069" gradientUnits="userSpaceOnUse">
<stop stop-color="#533004"/>
<stop offset="1" stop-color="#241201"/>
</linearGradient>
<linearGradient id="paint2_linear_154_27" x1="408" y1="123.069" x2="408" y2="206.069" gradientUnits="userSpaceOnUse">
<stop stop-color="#5359D6"/>
<stop offset="1" stop-color="#0B052C"/>
</linearGradient>
<linearGradient id="paint3_linear_154_27" x1="713.25" y1="36.6377" x2="713.25" y2="244.638" gradientUnits="userSpaceOnUse">
<stop stop-color="#7B9EFF"/>
<stop offset="1" stop-color="#0A2858"/>
</linearGradient>
</defs>
</svg>
