<svg width="817" height="219" viewBox="0 0 817 219" fill="none" xmlns="http://www.w3.org/2000/svg">
<path d="M0.5 218.499V11.9991C0.5 11.9991 10 16.9991 16.5 16.9991C23 16.9991 25.1548 4.95664 33.5 1.99913C50.4842 -4.01998 44.5 16.9983 73.5 24.9991C102.5 33 105.22 2.20585 128.5 1.99913C147.766 1.82805 163.5 11.9991 175.5 16.9991C187.5 21.9991 206 11.9991 206 11.9991V218.499H0.5Z" fill="url(#paint0_linear_150_12)"/>
<path d="M91.0361 122V111.979H94.0645L95.8828 118.814L97.6807 111.979H100.716V122H98.8359V114.111L96.8467 122H94.8984L92.916 114.111V122H91.0361ZM106.916 119.689L108.83 120.011C108.584 120.713 108.194 121.248 107.661 121.617C107.132 121.982 106.469 122.164 105.672 122.164C104.41 122.164 103.475 121.752 102.869 120.927C102.391 120.266 102.151 119.432 102.151 118.425C102.151 117.222 102.466 116.281 103.095 115.602C103.724 114.918 104.519 114.576 105.48 114.576C106.561 114.576 107.413 114.934 108.037 115.649C108.661 116.36 108.96 117.452 108.933 118.924H104.12C104.134 119.493 104.289 119.938 104.585 120.257C104.881 120.571 105.25 120.729 105.692 120.729C105.993 120.729 106.246 120.646 106.451 120.482C106.656 120.318 106.811 120.054 106.916 119.689ZM107.025 117.748C107.012 117.192 106.868 116.771 106.595 116.483C106.321 116.192 105.989 116.046 105.597 116.046C105.177 116.046 104.831 116.199 104.558 116.504C104.284 116.809 104.15 117.224 104.154 117.748H107.025ZM112.344 122H110.423V114.74H112.207V115.772C112.512 115.285 112.786 114.964 113.027 114.809C113.273 114.654 113.551 114.576 113.861 114.576C114.299 114.576 114.72 114.697 115.126 114.938L114.531 116.613C114.208 116.404 113.907 116.299 113.629 116.299C113.36 116.299 113.132 116.374 112.945 116.524C112.758 116.67 112.61 116.937 112.501 117.324C112.396 117.712 112.344 118.523 112.344 119.758V122Z" fill="white"/>
<rect x="305" y="11" width="207" height="207" fill="url(#paint1_linear_150_12)"/>
<rect x="305" y="97" width="207" height="83" fill="url(#paint2_linear_150_12)"/>
<path d="M350.867 59V48.9785H352.836L356.938 55.6709V48.9785H358.817V59H356.787L352.747 52.4648V59H350.867ZM362.386 53.9551L360.643 53.6406C360.839 52.9388 361.176 52.4193 361.654 52.082C362.133 51.7448 362.844 51.5762 363.787 51.5762C364.644 51.5762 365.282 51.6787 365.701 51.8838C366.12 52.0843 366.414 52.3418 366.583 52.6562C366.756 52.9661 366.843 53.5381 366.843 54.3721L366.822 56.6143C366.822 57.2523 366.852 57.724 366.911 58.0293C366.975 58.3301 367.091 58.6536 367.26 59H365.359C365.309 58.8724 365.248 58.6833 365.175 58.4326C365.143 58.3187 365.12 58.2435 365.106 58.207C364.778 58.526 364.427 58.7653 364.054 58.9248C363.68 59.0843 363.281 59.1641 362.857 59.1641C362.11 59.1641 361.52 58.9613 361.087 58.5557C360.659 58.1501 360.444 57.6374 360.444 57.0176C360.444 56.6074 360.542 56.2428 360.738 55.9238C360.934 55.6003 361.208 55.3542 361.559 55.1855C361.914 55.0124 362.424 54.862 363.09 54.7344C363.988 54.5658 364.61 54.4085 364.956 54.2627V54.0713C364.956 53.7021 364.865 53.4401 364.683 53.2852C364.5 53.1257 364.156 53.0459 363.65 53.0459C363.309 53.0459 363.042 53.1143 362.851 53.251C362.659 53.3831 362.504 53.6178 362.386 53.9551ZM364.956 55.5137C364.71 55.5957 364.32 55.6937 363.787 55.8076C363.254 55.9215 362.905 56.0332 362.741 56.1426C362.491 56.3203 362.365 56.5459 362.365 56.8193C362.365 57.0882 362.465 57.3206 362.666 57.5166C362.867 57.7126 363.122 57.8105 363.432 57.8105C363.778 57.8105 364.108 57.6966 364.423 57.4688C364.655 57.2956 364.808 57.0837 364.881 56.833C364.931 56.6689 364.956 56.3568 364.956 55.8965V55.5137ZM368.688 51.7402H370.479V52.8066C370.712 52.4421 371.026 52.1458 371.423 51.918C371.819 51.6901 372.259 51.5762 372.742 51.5762C373.585 51.5762 374.301 51.9066 374.889 52.5674C375.477 53.2282 375.771 54.1488 375.771 55.3291C375.771 56.5413 375.474 57.4847 374.882 58.1592C374.289 58.8291 373.572 59.1641 372.729 59.1641C372.327 59.1641 371.963 59.0843 371.635 58.9248C371.311 58.7653 370.969 58.4919 370.609 58.1045V61.7617H368.688V51.7402ZM370.589 55.2471C370.589 56.0628 370.751 56.6667 371.074 57.0586C371.398 57.446 371.792 57.6396 372.257 57.6396C372.703 57.6396 373.075 57.4619 373.371 57.1064C373.667 56.7464 373.815 56.1585 373.815 55.3428C373.815 54.5817 373.663 54.0166 373.357 53.6475C373.052 53.2783 372.674 53.0938 372.223 53.0938C371.753 53.0938 371.364 53.276 371.054 53.6406C370.744 54.0007 370.589 54.5361 370.589 55.2471ZM377.247 51.7402H379.038V52.8066C379.271 52.4421 379.585 52.1458 379.981 51.918C380.378 51.6901 380.818 51.5762 381.301 51.5762C382.144 51.5762 382.859 51.9066 383.447 52.5674C384.035 53.2282 384.329 54.1488 384.329 55.3291C384.329 56.5413 384.033 57.4847 383.44 58.1592C382.848 58.8291 382.13 59.1641 381.287 59.1641C380.886 59.1641 380.521 59.0843 380.193 58.9248C379.87 58.7653 379.528 58.4919 379.168 58.1045V61.7617H377.247V51.7402ZM379.147 55.2471C379.147 56.0628 379.309 56.6667 379.633 57.0586C379.956 57.446 380.351 57.6396 380.815 57.6396C381.262 57.6396 381.633 57.4619 381.93 57.1064C382.226 56.7464 382.374 56.1585 382.374 55.3428C382.374 54.5817 382.221 54.0166 381.916 53.6475C381.611 53.2783 381.232 53.0938 380.781 53.0938C380.312 53.0938 379.922 53.276 379.612 53.6406C379.302 54.0007 379.147 54.5361 379.147 55.2471ZM390.064 56.6895L391.979 57.0107C391.732 57.7126 391.343 58.248 390.81 58.6172C390.281 58.9818 389.618 59.1641 388.82 59.1641C387.558 59.1641 386.624 58.7516 386.018 57.9268C385.539 57.266 385.3 56.432 385.3 55.4248C385.3 54.2217 385.614 53.2806 386.243 52.6016C386.872 51.918 387.667 51.5762 388.629 51.5762C389.709 51.5762 390.561 51.9339 391.186 52.6494C391.81 53.3604 392.108 54.4518 392.081 55.9238H387.269C387.282 56.4935 387.437 56.9378 387.733 57.2568C388.03 57.5713 388.399 57.7285 388.841 57.7285C389.142 57.7285 389.395 57.6465 389.6 57.4824C389.805 57.3184 389.96 57.054 390.064 56.6895ZM390.174 54.748C390.16 54.1921 390.017 53.7705 389.743 53.4834C389.47 53.1917 389.137 53.0459 388.745 53.0459C388.326 53.0459 387.979 53.1986 387.706 53.5039C387.433 53.8092 387.298 54.224 387.303 54.748H390.174ZM397.495 51.7402H399.286V52.8066C399.519 52.4421 399.833 52.1458 400.229 51.918C400.626 51.6901 401.066 51.5762 401.549 51.5762C402.392 51.5762 403.107 51.9066 403.695 52.5674C404.283 53.2282 404.577 54.1488 404.577 55.3291C404.577 56.5413 404.281 57.4847 403.688 58.1592C403.096 58.8291 402.378 59.1641 401.535 59.1641C401.134 59.1641 400.77 59.0843 400.441 58.9248C400.118 58.7653 399.776 58.4919 399.416 58.1045V61.7617H397.495V51.7402ZM399.396 55.2471C399.396 56.0628 399.557 56.6667 399.881 57.0586C400.204 57.446 400.599 57.6396 401.063 57.6396C401.51 57.6396 401.882 57.4619 402.178 57.1064C402.474 56.7464 402.622 56.1585 402.622 55.3428C402.622 54.5817 402.469 54.0166 402.164 53.6475C401.859 53.2783 401.48 53.0938 401.029 53.0938C400.56 53.0938 400.17 53.276 399.86 53.6406C399.55 54.0007 399.396 54.5361 399.396 55.2471ZM408.022 48.9785V52.6631C408.642 51.9385 409.383 51.5762 410.244 51.5762C410.686 51.5762 411.085 51.6582 411.44 51.8223C411.796 51.9863 412.062 52.196 412.24 52.4512C412.423 52.7064 412.546 52.9889 412.609 53.2988C412.678 53.6087 412.712 54.0895 412.712 54.7412V59H410.791V55.165C410.791 54.404 410.755 53.9209 410.682 53.7158C410.609 53.5107 410.479 53.349 410.292 53.2305C410.11 53.1074 409.88 53.0459 409.602 53.0459C409.283 53.0459 408.998 53.1234 408.747 53.2783C408.496 53.4333 408.312 53.668 408.193 53.9824C408.079 54.2923 408.022 54.7526 408.022 55.3633V59H406.102V48.9785H408.022ZM416.506 59H414.585V51.7402H416.369V52.7725C416.674 52.2848 416.948 51.9635 417.189 51.8086C417.436 51.6536 417.714 51.5762 418.023 51.5762C418.461 51.5762 418.882 51.6969 419.288 51.9385L418.693 53.6133C418.37 53.4036 418.069 53.2988 417.791 53.2988C417.522 53.2988 417.294 53.374 417.107 53.5244C416.921 53.6702 416.772 53.9368 416.663 54.3242C416.558 54.7116 416.506 55.5228 416.506 56.7578V59ZM424.326 56.6895L426.24 57.0107C425.994 57.7126 425.604 58.248 425.071 58.6172C424.543 58.9818 423.88 59.1641 423.082 59.1641C421.82 59.1641 420.885 58.7516 420.279 57.9268C419.801 57.266 419.562 56.432 419.562 55.4248C419.562 54.2217 419.876 53.2806 420.505 52.6016C421.134 51.918 421.929 51.5762 422.891 51.5762C423.971 51.5762 424.823 51.9339 425.447 52.6494C426.072 53.3604 426.37 54.4518 426.343 55.9238H421.53C421.544 56.4935 421.699 56.9378 421.995 57.2568C422.291 57.5713 422.66 57.7285 423.103 57.7285C423.403 57.7285 423.656 57.6465 423.861 57.4824C424.066 57.3184 424.221 57.054 424.326 56.6895ZM424.436 54.748C424.422 54.1921 424.278 53.7705 424.005 53.4834C423.731 53.1917 423.399 53.0459 423.007 53.0459C422.588 53.0459 422.241 53.1986 421.968 53.5039C421.694 53.8092 421.56 54.224 421.564 54.748H424.436ZM421.981 50.8516L422.925 48.8076H425.078L423.198 50.8516H421.981ZM429.351 53.9551L427.607 53.6406C427.803 52.9388 428.141 52.4193 428.619 52.082C429.098 51.7448 429.809 51.5762 430.752 51.5762C431.609 51.5762 432.247 51.6787 432.666 51.8838C433.085 52.0843 433.379 52.3418 433.548 52.6562C433.721 52.9661 433.808 53.5381 433.808 54.3721L433.787 56.6143C433.787 57.2523 433.817 57.724 433.876 58.0293C433.94 58.3301 434.056 58.6536 434.225 59H432.324C432.274 58.8724 432.213 58.6833 432.14 58.4326C432.108 58.3187 432.085 58.2435 432.071 58.207C431.743 58.526 431.392 58.7653 431.019 58.9248C430.645 59.0843 430.246 59.1641 429.822 59.1641C429.075 59.1641 428.485 58.9613 428.052 58.5557C427.623 58.1501 427.409 57.6374 427.409 57.0176C427.409 56.6074 427.507 56.2428 427.703 55.9238C427.899 55.6003 428.173 55.3542 428.523 55.1855C428.879 55.0124 429.389 54.862 430.055 54.7344C430.952 54.5658 431.575 54.4085 431.921 54.2627V54.0713C431.921 53.7021 431.83 53.4401 431.647 53.2852C431.465 53.1257 431.121 53.0459 430.615 53.0459C430.273 53.0459 430.007 53.1143 429.815 53.251C429.624 53.3831 429.469 53.6178 429.351 53.9551ZM431.921 55.5137C431.675 55.5957 431.285 55.6937 430.752 55.8076C430.219 55.9215 429.87 56.0332 429.706 56.1426C429.455 56.3203 429.33 56.5459 429.33 56.8193C429.33 57.0882 429.43 57.3206 429.631 57.5166C429.831 57.7126 430.087 57.8105 430.396 57.8105C430.743 57.8105 431.073 57.6966 431.388 57.4688C431.62 57.2956 431.773 57.0837 431.846 56.833C431.896 56.6689 431.921 56.3568 431.921 55.8965V55.5137ZM439.037 51.7402V53.2715H437.725V56.1973C437.725 56.7897 437.736 57.1361 437.759 57.2363C437.786 57.332 437.843 57.4118 437.93 57.4756C438.021 57.5394 438.13 57.5713 438.258 57.5713C438.436 57.5713 438.693 57.5098 439.03 57.3867L439.194 58.877C438.748 59.0684 438.242 59.1641 437.677 59.1641C437.33 59.1641 437.018 59.1071 436.74 58.9932C436.462 58.8747 436.257 58.7243 436.125 58.542C435.997 58.3551 435.909 58.1045 435.858 57.79C435.817 57.5667 435.797 57.1156 435.797 56.4365V53.2715H434.915V51.7402H435.797V50.2979L437.725 49.1768V51.7402H439.037ZM440.37 50.7559V48.9785H442.291V50.7559H440.37ZM440.37 59V51.7402H442.291V59H440.37ZM449.011 61.7617V58.1113C448.76 58.4349 448.448 58.6924 448.074 58.8838C447.701 59.0706 447.297 59.1641 446.864 59.1641C446.039 59.1641 445.36 58.8542 444.827 58.2344C444.198 57.5098 443.884 56.5277 443.884 55.2881C443.884 54.1214 444.178 53.2122 444.766 52.5605C445.358 51.9043 446.092 51.5762 446.967 51.5762C447.45 51.5762 447.867 51.6787 448.218 51.8838C448.573 52.0889 448.888 52.3988 449.161 52.8135V51.7402H450.932V61.7617H449.011ZM449.072 55.2812C449.072 54.5384 448.92 53.987 448.614 53.627C448.313 53.2624 447.935 53.0801 447.479 53.0801C447.015 53.0801 446.625 53.2646 446.311 53.6338C446.001 54.0029 445.846 54.5885 445.846 55.3906C445.846 56.1882 445.996 56.7646 446.297 57.1201C446.598 57.471 446.969 57.6465 447.411 57.6465C447.853 57.6465 448.241 57.4482 448.573 57.0518C448.906 56.6553 449.072 56.0651 449.072 55.2812ZM457.604 59V57.9131C457.339 58.3005 456.991 58.6058 456.558 58.8291C456.129 59.0524 455.676 59.1641 455.197 59.1641C454.71 59.1641 454.272 59.057 453.885 58.8428C453.497 58.6286 453.217 58.3278 453.044 57.9404C452.871 57.5531 452.784 57.0176 452.784 56.334V51.7402H454.705V55.0762C454.705 56.097 454.739 56.7236 454.808 56.9561C454.881 57.1839 455.01 57.3662 455.197 57.5029C455.384 57.6351 455.621 57.7012 455.908 57.7012C456.236 57.7012 456.53 57.6123 456.79 57.4346C457.05 57.2523 457.228 57.029 457.323 56.7646C457.419 56.4958 457.467 55.8418 457.467 54.8027V51.7402H459.388V59H457.604ZM465.588 56.6895L467.502 57.0107C467.256 57.7126 466.866 58.248 466.333 58.6172C465.804 58.9818 465.141 59.1641 464.344 59.1641C463.081 59.1641 462.147 58.7516 461.541 57.9268C461.062 57.266 460.823 56.432 460.823 55.4248C460.823 54.2217 461.138 53.2806 461.767 52.6016C462.396 51.918 463.191 51.5762 464.152 51.5762C465.232 51.5762 466.085 51.9339 466.709 52.6494C467.333 53.3604 467.632 54.4518 467.604 55.9238H462.792C462.806 56.4935 462.961 56.9378 463.257 57.2568C463.553 57.5713 463.922 57.7285 464.364 57.7285C464.665 57.7285 464.918 57.6465 465.123 57.4824C465.328 57.3184 465.483 57.054 465.588 56.6895ZM465.697 54.748C465.684 54.1921 465.54 53.7705 465.267 53.4834C464.993 53.1917 464.66 53.0459 464.269 53.0459C463.849 53.0459 463.503 53.1986 463.229 53.5039C462.956 53.8092 462.822 54.224 462.826 54.748H465.697Z" fill="white"/>
<path d="M610.75 218.568V21.15C610.75 21.15 620.273 25.9302 626.789 25.9302C633.305 25.9302 635.465 14.4173 643.83 11.5898C660.856 5.83544 654.857 25.9293 683.928 33.5783C712.998 41.2273 715.724 11.7875 739.061 11.5898C758.374 11.4263 774.147 21.15 786.176 25.9302C798.205 30.7103 816.75 21.15 816.75 21.15V218.568H610.75Z" fill="url(#paint3_linear_150_12)"/>
<path d="M703.001 122V112.061H705.024V120.312H710.056V122H703.001ZM712.927 116.955L711.184 116.641C711.38 115.939 711.717 115.419 712.195 115.082C712.674 114.745 713.385 114.576 714.328 114.576C715.185 114.576 715.823 114.679 716.242 114.884C716.661 115.084 716.955 115.342 717.124 115.656C717.297 115.966 717.384 116.538 717.384 117.372L717.363 119.614C717.363 120.252 717.393 120.724 717.452 121.029C717.516 121.33 717.632 121.654 717.801 122H715.9C715.85 121.872 715.789 121.683 715.716 121.433C715.684 121.319 715.661 121.243 715.647 121.207C715.319 121.526 714.968 121.765 714.595 121.925C714.221 122.084 713.822 122.164 713.398 122.164C712.651 122.164 712.061 121.961 711.628 121.556C711.2 121.15 710.985 120.637 710.985 120.018C710.985 119.607 711.083 119.243 711.279 118.924C711.475 118.6 711.749 118.354 712.1 118.186C712.455 118.012 712.965 117.862 713.631 117.734C714.529 117.566 715.151 117.409 715.497 117.263V117.071C715.497 116.702 715.406 116.44 715.224 116.285C715.041 116.126 714.697 116.046 714.191 116.046C713.85 116.046 713.583 116.114 713.392 116.251C713.2 116.383 713.045 116.618 712.927 116.955ZM715.497 118.514C715.251 118.596 714.861 118.694 714.328 118.808C713.795 118.922 713.446 119.033 713.282 119.143C713.032 119.32 712.906 119.546 712.906 119.819C712.906 120.088 713.007 120.321 713.207 120.517C713.408 120.713 713.663 120.811 713.973 120.811C714.319 120.811 714.649 120.697 714.964 120.469C715.196 120.296 715.349 120.084 715.422 119.833C715.472 119.669 715.497 119.357 715.497 118.896V118.514ZM725.614 116.887L723.721 117.229C723.657 116.85 723.511 116.565 723.283 116.374C723.06 116.183 722.768 116.087 722.408 116.087C721.93 116.087 721.547 116.253 721.26 116.586C720.977 116.914 720.836 117.465 720.836 118.24C720.836 119.102 720.979 119.71 721.267 120.065C721.558 120.421 721.948 120.599 722.436 120.599C722.8 120.599 723.099 120.496 723.331 120.291C723.563 120.081 723.728 119.724 723.823 119.218L725.71 119.539C725.514 120.405 725.138 121.059 724.582 121.501C724.026 121.943 723.281 122.164 722.347 122.164C721.285 122.164 720.437 121.829 719.804 121.159C719.175 120.489 718.86 119.562 718.86 118.377C718.86 117.178 719.177 116.246 719.811 115.581C720.444 114.911 721.301 114.576 722.381 114.576C723.265 114.576 723.967 114.768 724.486 115.15C725.01 115.529 725.386 116.107 725.614 116.887Z" fill="white"/>
<defs>
<linearGradient id="paint0_linear_150_12" x1="103.25" y1="0.930664" x2="103.25" y2="218.499" gradientUnits="userSpaceOnUse">
<stop stop-color="#4B72DD"/>
<stop offset="1" stop-color="#0E0A24"/>
</linearGradient>
<linearGradient id="paint1_linear_150_12" x1="408.5" y1="11" x2="408.5" y2="218" gradientUnits="userSpaceOnUse">
<stop stop-color="#533004"/>
<stop offset="1" stop-color="#241201"/>
</linearGradient>
<linearGradient id="paint2_linear_150_12" x1="408.5" y1="97" x2="408.5" y2="180" gradientUnits="userSpaceOnUse">
<stop stop-color="#5359D6"/>
<stop offset="1" stop-color="#0B052C"/>
</linearGradient>
<linearGradient id="paint3_linear_150_12" x1="713.75" y1="10.5684" x2="713.75" y2="218.568" gradientUnits="userSpaceOnUse">
<stop stop-color="#7B9EFF"/>
<stop offset="1" stop-color="#0A2858"/>
</linearGradient>
</defs>
</svg>
