<svg width="817" height="245" viewBox="0 0 817 245" fill="none" xmlns="http://www.w3.org/2000/svg">

  <g id="group-bloc1" style="cursor:pointer;">
    <path d="M0 244.068V37.5684L16 42.5684L38 0L73 50.5684L96 21L122 50.5684L179.5 0L205.5 37.5684V244.068H0Z" fill="url(#paint0_linear_154_30)"/>
    <text x="102.75" y="125" fill="white" font-family="Arial, sans-serif" font-size="18" font-weight="bold" text-anchor="middle" dominant-baseline="middle">
      Sources
    </text>
  </g>
  
  <g id="group-bloc2" style="cursor:pointer;">
    <rect x="304.5" y="36.5693" width="207" height="207" fill="url(#paint1_linear_154_30)"/>
    <rect x="304.5" y="122.569" width="207" height="83" fill="url(#paint2_linear_154_30)"/>
    <text x="408" y="90" fill="white" font-family="Arial, sans-serif" font-size="18" font-weight="bold" text-anchor="middle" dominant-baseline="middle">
      Nappes phréatiques
    </text>
  </g>

  <g id="group-bloc3" style="cursor:pointer;">
    <path d="M610.25 244.138V46.7194C610.25 46.7194 619.773 51.4995 626.289 51.4995C632.805 51.4995 634.965 39.9866 643.33 37.1592C660.356 31.4048 654.357 51.4987 683.428 59.1477C712.498 66.7966 715.224 37.3568 738.561 37.1592C757.874 36.9956 773.647 46.7194 785.676 51.4995C797.705 56.2796 816.25 46.7194 816.25 46.7194V244.138H610.25Z" fill="url(#paint3_linear_154_30)"/>
      <rect id="bloc3-hover-area" x="610" y="36" width="206" height="208" fill="transparent" />
    <text x="713.25" y="125" fill="white" font-family="Arial, sans-serif" font-size="18" font-weight="bold" text-anchor="middle" dominant-baseline="middle">
      Lacs
    </text>
  </g>
  
  <defs>
    <linearGradient id="paint0_linear_154_30" x1="102.75" y1="26.5" x2="102.75" y2="244.068" gradientUnits="userSpaceOnUse">
      <stop stop-color="#4B72DD"/>
      <stop offset="1" stop-color="#0E0A24"/>
    </linearGradient>
    <linearGradient id="paint1_linear_154_30" x1="408" y1="36.5693" x2="408" y2="243.569" gradientUnits="userSpaceOnUse">
      <stop stop-color="#533004"/>
      <stop offset="1" stop-color="#241201"/>
    </linearGradient>
    <linearGradient id="paint2_linear_154_30" x1="408" y1="122.569" x2="408" y2="205.569" gradientUnits="userSpaceOnUse">
      <stop stop-color="#5359D6"/>
      <stop offset="1" stop-color="#0B052C"/>
    </linearGradient>
    <linearGradient id="paint3_linear_154_30" x1="713.25" y1="36.1377" x2="713.25" y2="244.138" gradientUnits="userSpaceOnUse">
      <stop stop-color="#7B9EFF"/>
      <stop offset="1" stop-color="#0A2858"/>
    </linearGradient>
  </defs>
</svg>
