 <svg width="179" height="243" viewBox="0 0 179 243" fill="none" xmlns="http://www.w3.org/2000/svg">
<path d="M2.25 18.4824L22.3477 217.33C22.3477 217.33 26.1028 223.966 29.7484 227.037C34.5571 231.089 39.6175 232.907 45.581 234.9C59.464 239.541 84.2727 238.831 84.2727 238.831C84.2727 238.831 110.177 239.533 126.575 233.107C134.705 229.921 146.152 222.303 146.152 222.303L168.938 19.7093C168.938 19.7093 157.476 33.1859 82.4768 34.7354C7.47781 36.285 2.25 18.4824 2.25 18.4824Z" fill="#E4FCFE" stroke="#574366" stroke-width="3"/>
<path d="M80.2159 89.8734C21.1837 90.2743 31.5408 98.859 31.5408 98.859L41.3848 205.547C41.3848 205.547 46.7058 213.337 79.7598 213.995C112.814 214.652 123.642 210.208 123.642 210.208L133.721 101.208C133.721 101.208 139.248 89.4726 80.2159 89.8734Z" fill="#379FDC" stroke="#574366" stroke-width="3"/>
<path d="M86.2331 4.05702C14.2113 4.98446 2.27025 18.9816 2.27025 18.9816C2.27025 18.9816 10.4956 36.6616 87.4726 34.5318C164.45 32.402 169.396 18.6894 169.396 18.6894C169.396 18.6894 158.255 3.12958 86.2331 4.05702Z" fill="#B3E8EE"/>
<path d="M31.0207 98.3788C31.0207 98.3788 32.1621 101.835 39.2986 105.048C46.435 108.26 60.6701 108.8 74.5135 109.621C88.9428 110.476 111.524 109.116 111.524 109.116M2.27025 18.9816C2.27025 18.9816 14.2113 4.98446 86.2331 4.05702C158.255 3.12958 169.396 18.6894 169.396 18.6894C169.396 18.6894 164.45 32.402 87.4726 34.5318C10.4956 36.6616 2.27025 18.9816 2.27025 18.9816Z" stroke="#574366" stroke-width="3"/>
</svg>
