<svg width="179" height="243" viewBox="0 0 179 243" fill="none" xmlns="http://www.w3.org/2000/svg">
<path d="M2.25 18.4824L22.3477 217.33C22.3477 217.33 26.1028 223.966 29.7484 227.037C34.5571 231.089 39.6175 232.907 45.581 234.9C59.464 239.541 84.2727 238.831 84.2727 238.831C84.2727 238.831 110.177 239.533 126.575 233.107C134.705 229.921 146.152 222.303 146.152 222.303L168.938 19.7093C168.938 19.7093 157.476 33.1859 82.4768 34.7354C7.47781 36.285 2.25 18.4824 2.25 18.4824Z" fill="#E4FCFE" stroke="#574366" stroke-width="3"/>
<path d="M80.2159 89.8734C21.1837 90.2743 31.5408 98.859 31.5408 98.859L41.3848 205.547C41.3848 205.547 46.7058 213.337 79.7598 213.995C112.814 214.652 123.642 210.208 123.642 210.208L133.721 101.208C133.721 101.208 139.248 89.4726 80.2159 89.8734Z" fill="#379FDC" stroke="#574366" stroke-width="3"/>
<path d="M86.2331 4.05702C14.2113 4.98446 2.27025 18.9816 2.27025 18.9816C2.27025 18.9816 10.4956 36.6616 87.4726 34.5318C164.45 32.402 169.396 18.6894 169.396 18.6894C169.396 18.6894 158.255 3.12958 86.2331 4.05702Z" fill="#B3E8EE"/>
<path d="M31.0207 98.3788C31.0207 98.3788 32.1621 101.835 39.2986 105.048C46.435 108.26 60.6701 108.8 74.5135 109.621C88.9428 110.476 111.524 109.116 111.524 109.116M2.27025 18.9816C2.27025 18.9816 14.2113 4.98446 86.2331 4.05702C158.255 3.12958 169.396 18.6894 169.396 18.6894C169.396 18.6894 164.45 32.402 87.4726 34.5318C10.4956 36.6616 2.27025 18.9816 2.27025 18.9816Z" stroke="#574366" stroke-width="3"/>
</svg>
 
<svg width="332" height="226" viewBox="0 0 332 226" fill="none" xmlns="http://www.w3.org/2000/svg">
<path d="M218.577 13.0615L25.4533 53.9127C25.4533 53.9127 19.3382 58.3286 16.7116 62.2605C13.2469 67.4468 12.0023 72.6468 10.682 78.7591C7.60834 92.9885 10.9571 117.467 10.9571 117.467C10.9571 117.467 13.0362 143.179 21.0993 158.731C25.0969 166.442 33.8019 176.968 33.8019 176.968L235.187 178.164C235.187 178.164 220.728 168.241 211.191 94.1765C201.653 20.1121 218.577 13.0615 218.577 13.0615Z" fill="#E4FCFE" stroke="#574366" stroke-width="3"/>
<path d="M244.643 94.6102C236.012 23.1015 220.817 12.7274 220.817 12.7274C220.817 12.7274 204.119 22.798 214.476 99.1048C224.834 175.412 238.997 178.862 238.997 178.862C238.997 178.862 253.275 166.119 244.643 94.6102Z" fill="#B3E8EE" stroke="#574366" stroke-width="3"/>
<path d="M326.001 173C329.846 158.547 246 144.525 246 144.525L59.3684 144.526C59.3684 144.526 43.2392 145.958 39.3086 154.065C35.3781 162.173 43.4859 164.752 43.4859 164.752L232 168.5C232 168.5 243.295 176.326 249 177.5C275.419 182.934 323.201 183.53 326.001 173Z" fill="#379FDC" stroke="#574366" stroke-width="3"/>
</svg>